mtllib materials.mtl
v -0.2130975 -0.0293296 -0.1313686
v -0.1536596 -0.03977299 -0.1962893
v -0.1609567 0.004796743 -0.1944031
v -0.1588453 -0.08107048 -0.1786572
v -0.1751243 -0.1080301 -0.1462313
v -0.1981348 -0.1134281 -0.1077002
v -0.2217109 -0.09581792 -0.07338816
v -0.2395356 -0.0599184 -0.05248916
v -0.2468327 -0.01534867 -0.05060303
v -0.241647 0.02594882 -0.0682351
v -0.2253679 0.05290842 -0.1006609
v -0.2023575 0.0583064 -0.1391921
v -0.1787813 0.04069626 -0.1735041
v -0.07568803 -0.0454191 -0.2375346
v -0.08940211 0.03834456 -0.2339897
v -0.08543405 -0.123033 -0.2043971
v -0.1160286 -0.1737005 -0.1434563
v -0.1592741 -0.1838453 -0.07104152
v -0.2035828 -0.1507492 -0.006556034
v -0.2370822 -0.08328015 0.03272128
v -0.2507963 0.0004835725 0.03626609
v -0.2410503 0.0780974 0.003128588
v -0.2104557 0.1287649 -0.05781209
v -0.1672103 0.1389098 -0.1302269
v -0.1229015 0.1058136 -0.1947125
v 0.01141259 -0.045587 -0.2501296
v -0.007064313 0.06726748 -0.2453537
v -0.001718134 -0.150156 -0.2054836
v -0.04293814 -0.2184201 -0.1233785
v -0.1012026 -0.2320882 -0.02581418
v -0.1608995 -0.1874979 0.06106687
v -0.2060332 -0.09659708 0.1139851
v -0.2245101 0.01625746 0.118761
v -0.2113794 0.1208263 0.07411492
v -0.1701594 0.1890904 -0.007990181
v -0.111895 0.2027586 -0.1055544
v -0.05219799 0.1581683 -0.1924356
v 0.09713671 -0.0402565 -0.2325554
v 0.07612553 0.08807689 -0.2271245
v 0.082205 -0.1591679 -0.1817858
v 0.03533134 -0.236795 -0.08841926
v -0.03092453 -0.2523378 0.02252674
v -0.09880936 -0.2016315 0.1213242
v -0.1501335 -0.09826297 0.1815006
v -0.1711447 0.03007048 0.1869316
v -0.156213 0.1489818 0.1361619
v -0.1093393 0.2266089 0.04279542
v -0.04308346 0.2421517 -0.06815052
v 0.02480143 0.1914454 -0.1669481
v 0.1711447 -0.03007042 -0.1869316
v 0.1501335 0.09826297 -0.1815006
v 0.156213 -0.1489818 -0.1361619
v 0.1093393 -0.2266089 -0.04279542
v 0.04308343 -0.2421517 0.06815055
v -0.0248014 -0.1914455 0.1669481
v -0.07612553 -0.08807689 0.2271244
v -0.09713671 0.04025656 0.2325554
v -0.08220497 0.1591678 0.1817858
v -0.03533134 0.236795 0.08841926
v 0.0309245 0.2523378 -0.02252668
v 0.09880939 0.2016315 -0.1213242
v 0.2245101 -0.01625741 -0.118761
v 0.2060332 0.09659714 -0.1139851
v 0.2113794 -0.1208263 -0.07411492
v 0.1701593 -0.1890905 0.007990181
v 0.1118949 -0.2027586 0.1055545
v 0.05219802 -0.1581683 0.1924355
v 0.007064313 -0.06726742 0.2453537
v -0.01141259 0.04558706 0.2501296
v 0.001718134 0.150156 0.2054836
v 0.04293814 0.2184201 0.1233785
v 0.1012025 0.2320881 0.02581424
v 0.1608995 0.1874978 -0.06106693
v 0.2507963 -0.0004835129 -0.03626615
v 0.2370822 0.08328015 -0.03272128
v 0.2410503 -0.0780974 -0.003128588
v 0.2104557 -0.1287649 0.05781206
v 0.1672103 -0.1389098 0.1302269
v 0.1229015 -0.1058136 0.1947124
v 0.08940211 -0.03834456 0.2339897
v 0.07568803 0.04541916 0.2375345
v 0.08543402 0.123033 0.204397
v 0.1160286 0.1737005 0.1434563
v 0.1592741 0.1838453 0.07104152
v 0.2035827 0.1507491 0.006555974
v 0.2468327 0.01534867 0.05060303
v 0.2395356 0.0599184 0.05248919
v 0.241647 -0.02594876 0.0682351
v 0.2253679 -0.05290836 0.100661
v 0.2023575 -0.05830634 0.1391921
v 0.1787814 -0.04069626 0.1735041
v 0.1609567 -0.004796743 0.1944031
v 0.1536596 0.03977299 0.1962892
v 0.1588453 0.08107048 0.1786572
v 0.1751244 0.10803 0.1462313
v 0.1981348 0.1134281 0.1077002
v 0.221711 0.09581786 0.07338819
v 0.2130975 0.0293296 0.1313686
vn -0.7417781 -0.09334202 -0.6641179
vn -0.7395586 -0.1836132 -0.6475641
vn -0.7621243 -0.2553719 -0.5949384
vn -0.8034292 -0.289389 -0.5203416
vn -0.8524057 -0.2765503 -0.4437619
vn -0.89593 -0.2202962 -0.3857189
vn -0.9223406 -0.1356987 -0.3617648
vn -0.9245601 -0.04542737 -0.3783185
vn -0.9019944 0.02633129 -0.4309442
vn -0.8606895 0.06034828 -0.505541
vn -0.8117132 0.0475099 -0.5821207
vn -0.7681885 -0.008745226 -0.6401641
vn -0.4694584 -0.03953283 -0.8820691
vn -0.4630982 -0.2981994 -0.834636
vn -0.5277588 -0.5038173 -0.6838413
vn -0.6461145 -0.6012913 -0.4700902
vn -0.7864519 -0.5645036 -0.2506573
vn -0.9111681 -0.4033109 -0.08433931
vn -0.986845 -0.1609051 -0.01570122
vn -0.9932052 0.09776162 -0.06313431
vn -0.9285448 0.3033794 -0.213929
vn -0.810189 0.4008534 -0.4276801
vn -0.6698515 0.3640658 -0.647113
vn -0.5451354 0.2028727 -0.813431
vn -0.1430559 0.01845516 -0.9895425
vn -0.1333829 -0.3749397 -0.9174036
vn -0.2317224 -0.6876551 -0.6880664
vn -0.4117244 -0.8358991 -0.3629818
vn -0.6251577 -0.77995 -0.02925581
vn -0.8148329 -0.5347992 0.22369
vn -0.9299266 -0.1661348 0.3280788
vn -0.9395998 0.2272602 0.2559397
vn -0.8412604 0.5399754 0.02660266
vn -0.6612583 0.6882195 -0.298482
vn -0.4478251 0.6322705 -0.6322079
vn -0.2581497 0.3871193 -0.8851538
vn 0.1959043 0.07345669 -0.977868
vn 0.2076945 -0.4060428 -0.8899394
vn 0.08783083 -0.7872043 -0.6104058
vn -0.1315695 -0.9678956 -0.2141676
vn -0.391718 -0.8997005 0.1926032
vn -0.6229088 -0.6008921 0.5009127
vn -0.7631941 -0.1515355 0.6281496
vn -0.7749842 0.3279643 0.5402212
vn -0.6551207 0.7091255 0.2606876
vn -0.4357203 0.8898167 -0.1355506
vn -0.1755715 0.8216218 -0.5423213
vn 0.05561914 0.5228131 -0.850631
vn 0.5090521 0.1194172 -0.8524116
vn 0.5215679 -0.3895823 -0.7590735
vn 0.3943301 -0.7941937 -0.4623423
vn 0.1614316 -0.9860014 -0.04172676
vn -0.1147222 -0.9136109 0.3900692
vn -0.360136 -0.596419 0.7173468
vn -0.5090517 -0.1194169 0.8524119
vn -0.5215673 0.3895825 0.7590739
vn -0.3943294 0.7941936 0.4623426
vn -0.1614312 0.9860015 0.04172713
vn 0.1147226 0.9136109 -0.3900691
vn 0.3601366 0.596419 -0.7173466
vn 0.7631938 0.1515356 -0.6281498
vn 0.7749842 -0.3279641 -0.5402213
vn 0.6551206 -0.7091256 -0.2606876
vn 0.4357203 -0.8898168 0.1355504
vn 0.1755714 -0.8216218 0.5423213
vn -0.0556191 -0.5228132 0.8506308
vn -0.1959044 -0.07345656 0.977868
vn -0.2076948 0.406043 0.8899394
vn -0.08783107 0.7872042 0.6104057
vn 0.1315693 0.9678955 0.2141676
vn 0.391718 0.8997005 -0.1926031
vn 0.6229087 0.6008919 -0.5009128
vn 0.9299267 0.1661348 -0.3280788
vn 0.9395998 -0.2272599 -0.2559397
vn 0.8412603 -0.5399753 -0.02660262
vn 0.6612583 -0.6882193 0.2984821
vn 0.447825 -0.6322703 0.632208
vn 0.2581498 -0.3871196 0.8851538
vn 0.1430561 -0.01845502 0.9895425
vn 0.1333829 0.3749398 0.9174035
vn 0.2317224 0.687655 0.6880664
vn 0.4117245 0.8358991 0.3629817
vn 0.6251577 0.77995 0.02925582
vn 0.8148329 0.5347991 -0.2236901
vn 0.986845 0.1609053 0.01570106
vn 0.9932054 -0.09776155 0.06313415
vn 0.9285448 -0.3033796 0.213929
vn 0.810189 -0.4008535 0.4276802
vn 0.6698514 -0.3640657 0.647113
vn 0.5451353 -0.2028732 0.813431
vn 0.4694585 0.03953271 0.8820692
vn 0.463098 0.2981996 0.834636
vn 0.5277586 0.5038174 0.6838412
vn 0.6461143 0.6012915 0.4700902
vn 0.7864519 0.5645036 0.2506573
vn 0.9111682 0.4033108 0.08433925
vn 0.9223404 0.1356993 0.3617649
vn 0.9245602 0.0454272 0.3783184
vn 0.9019943 -0.02633106 0.4309443
vn 0.8606895 -0.06034838 0.5055411
vn 0.8117131 -0.04750975 0.5821208
vn 0.7681887 0.00874435 0.6401638
vn 0.7417783 0.09334111 0.6641178
vn 0.7395585 0.1836133 0.6475642
vn 0.7621244 0.2553716 0.5949384
vn 0.8034292 0.2893889 0.5203416
vn 0.8524055 0.2765505 0.4437619
vn 0.89593 0.2202962 0.3857188
vt -0.05691342 0.09431533
vt -0.0521421 0.1017853
vt -0.05644609 0.1031668
vt -0.06248968 0.09255327
vt -0.05484617 0.09704135
vt -0.05805322 0.1002269
vt -0.06575418 0.09124558
vt -0.05689991 0.09165569
vt -0.0582535 0.09596851
vt -0.06606308 0.09094675
vt -0.05814423 0.08696451
vt -0.05721027 0.09138722
vt -0.06272644 0.09290139
vt -0.058098 0.08534203
vt -0.05497224 0.08860736
vt -0.05544955 0.09746883
vt -0.05589923 0.08861648
vt -0.05147555 0.08954585
vt -0.04607152 0.1025921
vt -0.05154849 0.095623
vt -0.04739971 0.09382846
vt -0.03857951 0.1055669
vt -0.04699982 0.1027984
vt -0.0445397 0.09900629
vt -0.03572677 0.1055453
vt -0.04437246 0.1074993
vt -0.04421177 0.1029819
vt -0.03761757 0.1032232
vt -0.04426041 0.1090917
vt -0.04629043 0.1050529
vt -0.04293279 0.0998783
vt -0.04612342 0.1081479
vt -0.04978637 0.1054992
vt -0.04993535 0.0967164
vt -0.04904087 0.1055349
vt -0.0535057 0.1048293
vt -0.06349819 0.08864664
vt -0.05914943 0.08741339
vt -0.05488758 0.09515696
vt -0.06306059 0.09747469
vt -0.07218434 0.08857902
vt -0.06866871 0.08573772
vt -0.06170931 0.09118684
vt -0.06831653 0.09652673
vt -0.07576482 0.08270104
vt -0.0735816 0.07874298
vt -0.06508028 0.08116241
vt -0.0691834 0.08860112
vt -0.07616306 0.07000758
vt -0.07568996 0.06551216
vt -0.0669167 0.06443696
vt -0.06780584 0.07288559
vt -0.0743892 0.05894019
vt -0.07611865 0.05476386
vt -0.06892182 0.04963242
vt -0.06567153 0.05748134
vt -0.06168206 0.07150502
vt -0.06590217 0.06988535
vt -0.06467172 0.06113251
vt -0.0567405 0.0641765
vt -0.02341094 0.09895862
vt -0.02691078 0.1018194
vt -0.03390026 0.09640887
vt -0.02732272 0.09103245
vt -0.005208413 0.1085704
vt -0.006143467 0.1129929
vt -0.01498086 0.1131558
vt -0.01322354 0.1048443
vt -0.006672539 0.1092388
vt -0.005593571 0.1136284
vt -0.01348274 0.1176143
vt -0.01551054 0.1093646
vt -0.01715312 0.1029898
vt -0.01448814 0.1066409
vt -0.02027291 0.1133239
vt -0.02528143 0.1064621
vt -0.03254927 0.09431591
vt -0.02869385 0.09667564
vt -0.0314947 0.105059
vt -0.03874053 0.1006242
vt -0.04938527 0.08899529
vt -0.04490924 0.08962597
vt -0.0441428 0.09843157
vt -0.05255499 0.0972463
vt -0.06883342 0.07673521
vt -0.06066483 0.07440195
vt -0.05686344 0.08233929
vt -0.06786894 0.08548288
vt -0.07715304 0.08654193
vt -0.0703931 0.08139672
vt -0.0639645 0.08740713
vt -0.07307215 0.09433924
vt -0.07668542 0.08157159
vt -0.07172608 0.07467413
vt -0.06382059 0.07854132
vt -0.0705023 0.08783424
vt -0.07213821 0.05664725
vt -0.06894957 0.04877309
vt -0.06035406 0.05066227
vt -0.0646501 0.06127111
vt -0.06630357 0.01692271
vt -0.06485482 0.008551865
vt -0.05605418 0.00857789
vt -0.05800609 0.01985589
vt -0.06461382 -0.02009143
vt -0.06594633 -0.02848157
vt -0.05760895 -0.03129938
vt -0.05581366 -0.01999538
vt 0.04084104 0.07870837
vt 0.04085317 0.08720366
vt 0.03217912 0.08869124
vt 0.03216278 0.07724558
vt 0.03294984 0.1003429
vt 0.03498236 0.1085915
vt 0.02691113 0.1120996
vt 0.02417272 0.1009863
vt 0.01955889 0.1046563
vt 0.02331972 0.1122737
vt 0.01619311 0.1174374
vt 0.01112617 0.1071744
vt 0.001324728 0.09285416
vt 0.006883151 0.09927863
vt 0.001287105 0.106071
vt -0.006201734 0.09741531
vt -0.02239414 0.07579766
vt -0.01509196 0.08013911
vt -0.01825783 0.08835064
vt -0.02809604 0.08250141
vt -0.04868012 0.0686104
vt -0.04027046 0.0698135
vt -0.04003885 0.07861112
vt -0.05136915 0.0769902
vt -0.07343572 0.06094936
vt -0.06255641 0.05739353
vt -0.05909763 0.06544931
vt -0.07146913 0.06949286
vt -0.07832117 0.0864463
vt -0.06943148 0.07923679
vt -0.06332182 0.08552416
vt -0.07343079 0.09372251
vt -0.07146645 0.08686228
vt -0.06432384 0.07791876
vt -0.05701115 0.0827544
vt -0.06513342 0.09292459
vt -0.05936994 0.05804891
vt -0.05311597 0.04846291
vt -0.04537408 0.05257656
vt -0.05248583 0.06347735
vt -0.03911257 0.007882947
vt -0.03235411 -0.001354289
vt -0.02484368 0.003168145
vt -0.03252912 0.01367234
vt 0.01563413 -0.03524629
vt 0.02611102 -0.03985479
vt 0.03034526 -0.03217819
vt 0.01843138 -0.0269376
vt 0.06939758 0.03736296
vt 0.07821833 0.04465663
vt 0.07325904 0.05188604
vt 0.06322844 0.04359198
vt 0.05615469 0.08736292
vt 0.06251696 0.09687737
vt 0.05569487 0.1023835
vt 0.04845995 0.0915641
vt 0.03914015 0.09554641
vt 0.04557305 0.1050133
vt 0.03879211 0.11057
vt 0.03147689 0.09980474
vt 0.01836717 0.07700246
vt 0.02600383 0.08552799
vt 0.02002357 0.09193855
vt 0.01133947 0.08224368
vt -0.01042749 0.04886077
vt -0.0008477958 0.05512441
vt -0.004969248 0.06286214
vt -0.01586287 0.0557394
vt -0.04685608 0.03853629
vt -0.03556348 0.04040191
vt -0.03621229 0.04914479
vt -0.04905375 0.04702329
vt -0.07743027 0.04627416
vt -0.06552288 0.04101886
vt -0.06198844 0.04902714
vt -0.07389584 0.05428243
vt -0.07466269 0.08955266
vt -0.06541649 0.08039231
vt -0.05925573 0.08661081
vt -0.06850193 0.09577116
vt -0.06119819 0.09593927
vt -0.0531643 0.08569911
vt -0.04627732 0.09110227
vt -0.0543112 0.1013424
vt -0.04340539 0.07026137
vt -0.0351423 0.06020525
vt -0.02837909 0.06576256
vt -0.03664218 0.07581868
vt -0.0161466 0.0278644
vt -0.006147501 0.01953241
vt -0.0005438475 0.02625727
vt -0.01054295 0.03458926
vt 0.02947724 0.0046801
vt 0.04217184 0.00180758
vt 0.04410374 0.01034529
vt 0.03140914 0.01321781
vt 0.06552287 0.04101889
vt 0.07743027 0.04627419
vt 0.07389584 0.05428246
vt 0.06198844 0.04902716
vt 0.0654165 0.08039232
vt 0.0746627 0.08955266
vt 0.06850194 0.09577116
vt 0.05925575 0.08661081
vt 0.05316433 0.08569909
vt 0.06119822 0.09593925
vt 0.05431124 0.1013424
vt 0.04627735 0.09110226
vt 0.03514234 0.06020524
vt 0.04340542 0.07026136
vt 0.03664221 0.07581867
vt 0.02837913 0.06576254
vt 0.006147517 0.01953237
vt 0.01614663 0.02786437
vt 0.01054297 0.03458923
vt 0.0005438637 0.02625723
vt -0.04217184 0.001807508
vt -0.02947724 0.004680025
vt -0.03140915 0.01321773
vt -0.04410375 0.01034522
vt -0.07838893 0.04568206
vt -0.06835832 0.03738801
vt -0.06339903 0.04461741
vt -0.0722198 0.05191109
vt -0.06238671 0.09790872
vt -0.05515179 0.08708929
vt -0.04832969 0.09259546
vt -0.05469198 0.1021099
vt -0.04545047 0.1060456
vt -0.03813525 0.09528026
vt -0.03135431 0.100837
vt -0.03778721 0.1103039
vt -0.02601987 0.08656742
vt -0.01733577 0.07687255
vt -0.0113555 0.08328311
vt -0.01899217 0.09180863
vt 0.0005638484 0.05612443
vt 0.01145746 0.04900168
vt 0.01557891 0.05673941
vt 0.005999237 0.06300305
vt 0.03490012 0.04120231
vt 0.0477416 0.03908081
vt 0.04839041 0.04782369
vt 0.03709781 0.04968931
vt 0.06159856 0.05779753
vt 0.07397006 0.06184108
vt 0.07051129 0.06989687
vt 0.05963197 0.06634104
vt 0.06839252 0.07927177
vt 0.07850148 0.08747013
vt 0.07239182 0.0937575
vt 0.06350215 0.08654798
vt 0.06330142 0.07773077
vt 0.07142369 0.08790097
vt 0.06411101 0.09273661
vt 0.0569684 0.08379309
vt 0.05211623 0.04817795
vt 0.05922798 0.05907874
vt 0.05148609 0.06319239
vt 0.04523212 0.0536064
vt 0.03134054 -0.001585307
vt 0.03902598 0.008918903
vt 0.03151556 0.01344134
vt 0.02475709 0.004204092
vt -0.027104 -0.0395469
vt -0.01519012 -0.03430633
vt -0.01942436 -0.02662973
vt -0.02990124 -0.03123821
vt -0.03980432 0.08868036
vt -0.03978797 0.07723469
vt -0.03111394 0.07872227
vt -0.03112607 0.08721755
vt -0.03431489 0.1102752
vt -0.03157648 0.09916198
vt -0.02350525 0.1026701
vt -0.02553777 0.1109187
vt -0.02303042 0.1140618
vt -0.01796348 0.1037987
vt -0.01083687 0.1089624
vt -0.01459769 0.1165799
vt -0.007053589 0.1010819
vt 0.0004352614 0.0924262
vt 0.0060313 0.09921855
vt 0.0004728749 0.105643
vt 0.01436106 0.08179633
vt 0.02419925 0.07594712
vt 0.02736511 0.08415864
vt 0.02006294 0.08850009
vt 0.03895894 0.07106276
vt 0.05028925 0.06944183
vt 0.05005764 0.07823946
vt 0.04164797 0.07944255
vt 0.05895773 0.07500733
vt 0.06996323 0.07815092
vt 0.06616184 0.08608826
vt 0.05799325 0.08375499
vt 0.06858274 0.08133955
vt 0.07769039 0.08827166
vt 0.07126179 0.09428206
vt 0.06450186 0.08913686
vt 0.07001163 0.07408992
vt 0.07669332 0.08338284
vt 0.06878784 0.08725003
vt 0.0638285 0.08035257
vt 0.06742176 0.0478002
vt 0.07171779 0.05840904
vt 0.06312229 0.06029822
vt 0.05993365 0.05242405
vt 0.06356768 0.007277512
vt 0.0655196 0.01855553
vt 0.05671897 0.01858155
vt 0.05527021 0.0102107
vt 0.06513978 -0.03010335
vt 0.06334449 -0.01879937
vt 0.05500711 -0.02161718
vt 0.05633963 -0.03000731
vt 0.02903882 0.1023564
vt 0.02246128 0.09697993
vt 0.02945076 0.09156945
vt 0.0329506 0.09443019
vt 0.007465464 0.1147448
vt 0.005708146 0.1064333
vt 0.01454554 0.1065962
vt 0.01548059 0.1110187
vt 0.006023241 0.1157807
vt 0.008051037 0.107531
vt 0.01594022 0.1115169
vt 0.01486125 0.1159065
vt 0.01406835 0.1087952
vt 0.01907687 0.1019333
vt 0.02486164 0.1086163
vt 0.02219667 0.1122674
vt 0.02748467 0.09850727
vt 0.0347305 0.09407242
vt 0.03753136 0.1024558
vt 0.03367594 0.1048155
vt 0.04307102 0.09082516
vt 0.05148322 0.08963988
vt 0.05071678 0.09844549
vt 0.04624075 0.09907616
vt 0.0569833 0.08776683
vt 0.06515632 0.09008456
vt 0.06089447 0.09782812
vt 0.0565457 0.09659488
vt 0.06653772 0.0852125
vt 0.07314494 0.0905524
vt 0.06618555 0.09600152
vt 0.06266992 0.09316021
vt 0.07180645 0.07745232
vt 0.07590957 0.08489102
vt 0.06740824 0.08731045
vt 0.06522502 0.08335239
vt 0.07455606 0.06363298
vt 0.0754452 0.07208161
vt 0.06667195 0.07100642
vt 0.06619883 0.066511
vt 0.07601891 0.05257137
vt 0.07276862 0.06042029
vt 0.06557178 0.05528884
vt 0.06730124 0.05111251
vt 0.06742411 0.06830403
vt 0.05949291 0.071348
vt 0.05826246 0.06259517
vt 0.06248257 0.0609755
vt 0.04829264 0.1031503
vt 0.04414387 0.1013557
vt 0.04962083 0.09438658
vt 0.04011951 0.107262
vt 0.0376594 0.1034698
vt 0.04607971 0.1007013
vt 0.03617638 0.1077908
vt 0.03601569 0.1032734
vt 0.04466137 0.1052274
vt 0.03693268 0.1054085
vt 0.0389627 0.1013697
vt 0.04560553 0.1072382
vt 0.04131782 0.101502
vt 0.04498076 0.09885335
vt 0.0481714 0.1071229
vt 0.04776054 0.09743418
vt 0.05222537 0.09672855
vt 0.05133089 0.105547
vt 0.05464846 0.09397644
vt 0.05895244 0.09535788
vt 0.05418112 0.1028279
vt 0.06062579 0.09122265
vt 0.06383285 0.09440816
vt 0.05618934 0.09889624
vt 0.06472485 0.08919983
vt 0.06607843 0.09351265
vt 0.05722417 0.09392276
vt 0.06616856 0.08865906
vt 0.06523459 0.09308176
vt 0.05731576 0.08909953
vt 0.06402244 0.09101321
vt 0.06089668 0.09427853
vt 0.05626824 0.08671919
vt 0.05758539 0.09664256
vt 0.05316172 0.09757192
vt 0.0536114 0.08871958
o group1945116984
g mesh1945116984
usemtl mat21
f 3/3/1 2/2/1 1/1/1
f 2/6/2 4/5/2 1/4/2
f 6/15/5 7/14/5 1/13/5
f 7/18/6 8/17/6 1/16/6
f 10/27/9 11/26/9 1/25/9
f 11/30/10 12/29/10 1/28/10
f 15/40/13 14/39/13 2/38/13 3/37/13
f 14/44/14 16/43/14 4/42/14 2/41/14
f 18/56/17 19/55/17 7/54/17 6/53/17
f 19/60/18 20/59/18 8/58/18 7/57/18
f 22/72/21 23/71/21 11/70/21 10/69/21
f 23/76/22 24/75/22 12/74/22 11/73/22
f 27/88/25 26/87/25 14/86/25 15/85/25
f 26/92/26 28/91/26 16/90/26 14/89/26
f 30/104/29 31/103/29 19/102/29 18/101/29
f 31/108/30 32/107/30 20/106/30 19/105/30
f 34/120/33 35/119/33 23/118/33 22/117/33
f 35/124/34 36/123/34 24/122/34 23/121/34
f 39/136/37 38/135/37 26/134/37 27/133/37
f 38/140/38 40/139/38 28/138/38 26/137/38
f 42/152/41 43/151/41 31/150/41 30/149/41
f 43/156/42 44/155/42 32/154/42 31/153/42
f 46/168/45 47/167/45 35/166/45 34/165/45
f 47/172/46 48/171/46 36/170/46 35/169/46
f 51/184/49 50/183/49 38/182/49 39/181/49
f 50/188/50 52/187/50 40/186/50 38/185/50
f 54/200/53 55/199/53 43/198/53 42/197/53
f 55/204/54 56/203/54 44/202/54 43/201/54
f 58/216/57 59/215/57 47/214/57 46/213/57
f 59/220/58 60/219/58 48/218/58 47/217/58
f 63/232/61 62/231/61 50/230/61 51/229/61
f 62/236/62 64/235/62 52/234/62 50/233/62
f 66/248/65 67/247/65 55/246/65 54/245/65
f 67/252/66 68/251/66 56/250/66 55/249/66
f 70/264/69 71/263/69 59/262/69 58/261/69
f 71/268/70 72/267/70 60/266/70 59/265/70
f 75/280/73 74/279/73 62/278/73 63/277/73
f 74/284/74 76/283/74 64/282/74 62/281/74
f 78/296/77 79/295/77 67/294/77 66/293/77
f 79/300/78 80/299/78 68/298/78 67/297/78
f 82/312/81 83/311/81 71/310/81 70/309/81
f 83/316/82 84/315/82 72/314/82 71/313/82
f 87/328/85 86/327/85 74/326/85 75/325/85
f 86/332/86 88/331/86 76/330/86 74/329/86
f 90/344/89 91/343/89 79/342/89 78/341/89
f 91/348/90 92/347/90 80/346/90 79/345/90
f 94/360/93 95/359/93 83/358/93 82/357/93
f 95/364/94 96/363/94 84/362/94 83/361/94
f 98/375/97 86/374/97 87/373/97
f 98/378/98 88/377/98 86/376/98
f 98/387/101 91/386/101 90/385/101
f 98/390/102 92/389/102 91/388/102
f 98/399/105 95/398/105 94/397/105
f 98/402/106 96/401/106 95/400/106
usemtl mat12
f 4/9/3 5/8/3 1/7/3
f 5/12/4 6/11/4 1/10/4
f 16/48/15 17/47/15 5/46/15 4/45/15
f 17/52/16 18/51/16 6/50/16 5/49/16
f 28/96/27 29/95/27 17/94/27 16/93/27
f 29/100/28 30/99/28 18/98/28 17/97/28
f 40/144/39 41/143/39 29/142/39 28/141/39
f 41/148/40 42/147/40 30/146/40 29/145/40
f 52/192/51 53/191/51 41/190/51 40/189/51
f 53/196/52 54/195/52 42/194/52 41/193/52
f 64/240/63 65/239/63 53/238/63 52/237/63
f 65/244/64 66/243/64 54/242/64 53/241/64
f 76/288/75 77/287/75 65/286/75 64/285/75
f 77/292/76 78/291/76 66/290/76 65/289/76
f 88/336/87 89/335/87 77/334/87 76/333/87
f 89/340/88 90/339/88 78/338/88 77/337/88
f 98/381/99 89/380/99 88/379/99
f 98/384/100 90/383/100 89/382/100
usemtl mat8
f 8/21/7 9/20/7 1/19/7
f 9/24/8 10/23/8 1/22/8
f 20/64/19 21/63/19 9/62/19 8/61/19
f 21/68/20 22/67/20 10/66/20 9/65/20
f 32/112/31 33/111/31 21/110/31 20/109/31
f 33/116/32 34/115/32 22/114/32 21/113/32
f 44/160/43 45/159/43 33/158/43 32/157/43
f 45/164/44 46/163/44 34/162/44 33/161/44
f 56/208/55 57/207/55 45/206/55 44/205/55
f 57/212/56 58/211/56 46/210/56 45/209/56
f 68/256/67 69/255/67 57/254/67 56/253/67
f 69/260/68 70/259/68 58/258/68 57/257/68
f 80/304/79 81/303/79 69/302/79 68/301/79
f 81/308/80 82/307/80 70/306/80 69/305/80
f 92/352/91 93/351/91 81/350/91 80/349/91
f 93/356/92 94/355/92 82/354/92 81/353/92
f 98/393/103 93/392/103 92/391/103
f 98/396/104 94/395/104 93/394/104
usemtl mat5
f 12/33/11 13/32/11 1/31/11
f 13/36/12 3/35/12 1/34/12
f 24/80/23 25/79/23 13/78/23 12/77/23
f 25/84/24 15/83/24 3/82/24 13/81/24
f 36/128/35 37/127/35 25/126/35 24/125/35
f 37/132/36 27/131/36 15/130/36 25/129/36
f 48/176/47 49/175/47 37/174/47 36/173/47
f 49/180/48 39/179/48 27/178/48 37/177/48
f 60/224/59 61/223/59 49/222/59 48/221/59
f 61/228/60 51/227/60 39/226/60 49/225/60
f 72/272/71 73/271/71 61/270/71 60/269/71
f 73/276/72 63/275/72 51/274/72 61/273/72
f 84/320/83 85/319/83 73/318/83 72/317/83
f 85/324/84 75/323/84 63/322/84 73/321/84
f 96/368/95 97/367/95 85/366/95 84/365/95
f 97/372/96 87/371/96 75/370/96 85/369/96
f 98/405/107 97/404/107 96/403/107
f 98/408/108 87/407/108 97/406/108
